<svg xmlns="http://www.w3.org/2000/svg" viewBox="0 0 1200 675" width="1200" height="675" role="img" aria-labelledby="t-vyplaty-za-poranennya">
  <title id="t-vyplaty-za-poranennya">Виплати та пільги за поранення</title>
  <defs>
    <linearGradient id="bg-vyplaty-za-poranennya" x1="0" y1="0" x2="1" y2="1">
      <stop offset="0" stop-color="#0d0d0d"/>
      <stop offset="1" stop-color="#152d47"/>
    </linearGradient>
    <radialGradient id="glow-vyplaty-za-poranennya" cx="0.82" cy="0.18" r="0.62">
      <stop offset="0" stop-color="#d03953" stop-opacity="0.42"/>
      <stop offset="1" stop-color="#d03953" stop-opacity="0"/>
    </radialGradient>
    <pattern id="grid-vyplaty-za-poranennya" width="48" height="48" patternUnits="userSpaceOnUse">
      <path d="M48 0H0v48" fill="none" stroke="#feedba" stroke-opacity="0.05" stroke-width="1"/>
    </pattern>
  </defs>

  <rect width="1200" height="675" fill="url(#bg-vyplaty-za-poranennya)"/>
  <rect width="1200" height="675" fill="url(#grid-vyplaty-za-poranennya)"/>
  <rect width="1200" height="675" fill="url(#glow-vyplaty-za-poranennya)"/>

  <!-- corner rule: a fixed mark so the set reads as one family -->
  <path d="M72 603h132" stroke="#d03953" stroke-width="5" stroke-linecap="round"/>
  <path d="M216 603h64" stroke="#feedba" stroke-width="5" stroke-opacity="0.35" stroke-linecap="round"/>
  <circle cx="1128" cy="102" r="7" fill="#d03953" fill-opacity="0.8"/>

  <g fill="none" stroke="#feedba" stroke-width="7" stroke-linecap="round" stroke-linejoin="round" stroke-opacity="0.92">
    <rect x="404" y="232" width="200" height="200" rx="20"/>
    <path d="M504 276v112M448 332h112" stroke="#d03953" stroke-width="16"/>
    <circle cx="740" cy="376" r="86" stroke="#d03953" stroke-width="10"/>
    <path d="M706 408V356c0-24 18-38 36-38s34 14 34 32" stroke-width="9"/>
    <path d="M684 372h86M700 408h74" stroke-width="9"/>
  </g>
</svg>
