<svg xmlns="http://www.w3.org/2000/svg" viewBox="0 0 1200 675" width="1200" height="675" role="img" aria-labelledby="t-zsu-advokat">
  <title id="t-zsu-advokat">Військовий адвокат в Україні</title>
  <defs>
    <linearGradient id="bg-zsu-advokat" x1="0" y1="0" x2="1" y2="1">
      <stop offset="0" stop-color="#0d0d0d"/>
      <stop offset="1" stop-color="#152d47"/>
    </linearGradient>
    <radialGradient id="glow-zsu-advokat" cx="0.82" cy="0.18" r="0.62">
      <stop offset="0" stop-color="#d03953" stop-opacity="0.42"/>
      <stop offset="1" stop-color="#d03953" stop-opacity="0"/>
    </radialGradient>
    <pattern id="grid-zsu-advokat" width="48" height="48" patternUnits="userSpaceOnUse">
      <path d="M48 0H0v48" fill="none" stroke="#feedba" stroke-opacity="0.05" stroke-width="1"/>
    </pattern>
  </defs>

  <rect width="1200" height="675" fill="url(#bg-zsu-advokat)"/>
  <rect width="1200" height="675" fill="url(#grid-zsu-advokat)"/>
  <rect width="1200" height="675" fill="url(#glow-zsu-advokat)"/>

  <!-- corner rule: a fixed mark so the set reads as one family -->
  <path d="M72 603h132" stroke="#d03953" stroke-width="5" stroke-linecap="round"/>
  <path d="M216 603h64" stroke="#feedba" stroke-width="5" stroke-opacity="0.35" stroke-linecap="round"/>
  <circle cx="1128" cy="114" r="7" fill="#d03953" fill-opacity="0.8"/>

  <g fill="none" stroke="#feedba" stroke-width="7" stroke-linecap="round" stroke-linejoin="round" stroke-opacity="0.92">
    <path d="M600 164v248"/>
    <path d="M466 220h268"/>
    <path d="M466 220l-52 112h104z" stroke-width="8"/>
    <path d="M734 220l-52 112h104z" stroke-width="8"/>
    <path d="M414 332c0 30 24 52 52 52s52-22 52-52" stroke="#d03953" stroke-width="9"/>
    <path d="M682 332c0 30 24 52 52 52s52-22 52-52" stroke="#d03953" stroke-width="9"/>
    <path d="M600 412l76 28v76c0 48-36 78-76 92-40-14-76-44-76-92v-76z" stroke="#d03953" stroke-width="10"/>
  </g>
</svg>
